<svg xmlns="http://www.w3.org/2000/svg" viewBox="0 0 32 32">
  <!-- R Reconquête - bleu marine -->
  <path fill="#1a2a5e" d="
    M5 2 L5 28 L10 28 L10 17 L13 17 L18 28 L24 28 L18 16
    C21 15 22 13 22 10 C22 5 19 2 14 2 L5 2 Z
    M10 5 L13 5 C15 5 17 6.5 17 9.5 C17 12 15 14 13 14 L10 14 L10 5 Z
    M1 11 L1 16 L5 16 L5 11 Z
  "/>

  <!-- Point d'exclamation rouge -->
  <rect x="26" y="2" width="4" height="16" fill="#e30613"/>
  <rect x="26" y="21" width="4" height="7" fill="#e30613"/>
</svg>